<?xml version="1.0" encoding="UTF-8"?>
<svg id="BACKGROUND" xmlns="http://www.w3.org/2000/svg" xmlns:xlink="http://www.w3.org/1999/xlink" viewBox="0 0 209.79 209.79">
  <defs>
    <style>
      .cls-1 {
        fill: none;
      }

      .cls-2 {
        fill: url(#Degradado_sin_nombre_3-2);
      }

      .cls-3 {
        fill: url(#Degradado_sin_nombre_2);
      }

      .cls-4 {
        fill: url(#Degradado_sin_nombre_3);
      }

      .cls-5 {
        clip-path: url(#clippath);
      }
    </style>
    <clipPath id="clippath">
      <rect class="cls-1" x="-290.21" width="500" height="500"/>
    </clipPath>
    <linearGradient id="Degradado_sin_nombre_2" data-name="Degradado sin nombre 2" x1="161.74" y1="145.53" x2="202.74" y2="-23.47" gradientUnits="userSpaceOnUse">
      <stop offset="0" stop-color="#3000ff"/>
      <stop offset="1" stop-color="#ff31b0"/>
    </linearGradient>
    <linearGradient id="Degradado_sin_nombre_3" data-name="Degradado sin nombre 3" x1="293.45" y1="-38.42" x2="-29.55" y2="144.58" gradientUnits="userSpaceOnUse">
      <stop offset="0" stop-color="#ffb50f"/>
      <stop offset="1" stop-color="#ff31b0"/>
    </linearGradient>
    <linearGradient id="Degradado_sin_nombre_3-2" data-name="Degradado sin nombre 3" x1="136.88" y1="137.67" x2="87.4" y2="165.7" xlink:href="#Degradado_sin_nombre_3"/>
  </defs>
  <g class="cls-5">
    <path class="cls-3" d="M38.79-42S14.79,14,82.79,36s74,37,69,95,86,73,157,43-33-260-33-260l-154-36S60.79-85,38.79-42Z"/>
    <path class="cls-4" d="M82.79-39s-13,57,48,56-10,58,0,98,92,20,136-25,39-121-20-142-137-5-164,13Z"/>
    <circle class="cls-2" cx="121.29" cy="146.5" r="15.5"/>
  </g>
</svg>