<?xml version="1.0" encoding="UTF-8"?>
<svg id="OBJECT" xmlns="http://www.w3.org/2000/svg" version="1.1" xmlns:xlink="http://www.w3.org/1999/xlink" viewBox="0 0 281.5 281.5">
  <!-- Generator: Adobe Illustrator 29.0.0, SVG Export Plug-In . SVG Version: 2.1.0 Build 186)  -->
  <defs>
    <style>
      .st0 {
        fill: url(#Gradiente_sem_nome_5);
      }

      .st1 {
        display: none;
        fill: #0a0135;
      }

      .st2 {
        fill: url(#Gradiente_sem_nome_2);
      }

      .st3 {
        fill: url(#Gradiente_sem_nome);
      }

      .st4 {
        fill: url(#Gradiente_sem_nome_4);
      }

      .st5 {
        fill: url(#Gradiente_sem_nome_6);
      }

      .st6 {
        fill: url(#Gradiente_sem_nome_3);
      }
    </style>
    <linearGradient id="Gradiente_sem_nome" data-name="Gradiente sem nome" x1="140.8" y1="1021.7" x2="140.8" y2="782.7" gradientTransform="translate(0 -796)" gradientUnits="userSpaceOnUse">
      <stop offset="0" stop-color="#3000ff"/>
      <stop offset="1" stop-color="#ff31b0"/>
    </linearGradient>
    <linearGradient id="Gradiente_sem_nome_2" data-name="Gradiente sem nome 2" x1="140.9" y1="1028.8" x2="140.9" y2="1023.8" gradientTransform="translate(0 -796)" gradientUnits="userSpaceOnUse">
      <stop offset="0" stop-color="#3000ff"/>
      <stop offset="1" stop-color="#ff31b0"/>
    </linearGradient>
    <linearGradient id="Gradiente_sem_nome_3" data-name="Gradiente sem nome 3" x1="211.9" y1="1025.6" x2="211.9" y2="853.7" gradientTransform="translate(0 -796)" gradientUnits="userSpaceOnUse">
      <stop offset="0" stop-color="#3000ff"/>
      <stop offset="1" stop-color="#ff31b0"/>
    </linearGradient>
    <linearGradient id="Gradiente_sem_nome_4" data-name="Gradiente sem nome 4" x1="140.7" y1="855.7" x2="140.7" y2="844.5" gradientTransform="translate(0 -796)" gradientUnits="userSpaceOnUse">
      <stop offset="0" stop-color="#3000ff"/>
      <stop offset="1" stop-color="#ff31b0"/>
    </linearGradient>
    <linearGradient id="Gradiente_sem_nome_5" data-name="Gradiente sem nome 5" x1="69.7" y1="1025.8" x2="69.7" y2="853.9" gradientTransform="translate(0 -796)" gradientUnits="userSpaceOnUse">
      <stop offset="0" stop-color="#3000ff"/>
      <stop offset="1" stop-color="#ff31b0"/>
    </linearGradient>
    <linearGradient id="Gradiente_sem_nome_6" data-name="Gradiente sem nome 6" x1="140.8" y1="755.9" x2="140.8" y2="1104.4" gradientTransform="translate(0 -796)" gradientUnits="userSpaceOnUse">
      <stop offset="0" stop-color="#ffb50f"/>
      <stop offset="1" stop-color="#ff31b0"/>
    </linearGradient>
  </defs>
  <circle class="st1" cx="140.8" cy="140.8" r="140"/>
  <g>
    <path class="st3" d="M168.7,35.4c-6.3-6.3-14.3-9.8-24-10.6V5.1h-7.7v19.7c-9.7.8-17.8,4.4-24,10.6-6.3,6.3-9.4,13.7-9.4,22.2v39.7c0,10.7,2.8,20.4,8.4,29.1l32.4,50.5c5.1,8.1,7.7,17.6,7.7,28.3v27.5c0,8.6-3.8,13-11.3,13s-11.4-4.3-11.4-13v-49.3h-25.9v45.4c0,8.6,3.2,16.2,9.4,22.3,6.3,6.3,14.3,9.8,24,10.8v19.5h7.7v-19.8c9.7-.8,17.8-4.3,24-10.6,6.3-6.1,9.4-13.5,9.4-22.3v-41.1c0-10.8-2.8-20.5-8.4-29.4l-32.4-50.5c-5.1-8.1-7.7-17.5-7.7-28.2v-26.1c0-8.6,3.8-13,11.4-13s11.3,4.3,11.3,13v49.3h25.9v-45.4c0-8.5-3.2-15.9-9.4-22.2h0Z"/>
    <g>
      <g>
        <path class="st2" d="M140.8,227.9h-3.5c0,5,1.3,5,3.6,5s3.4,0,3.5-5h-3.6Z"/>
        <path class="st6" d="M185.9,57.8v14.9c23.4,14.9,39,41.2,39,71s-15.6,56.1-39,71v14.9c30.9-16.3,52-48.7,52-86s-21.2-69.6-52-85.9h0Z"/>
        <path class="st4" d="M140.8,48.5c-2.4,0-3.6,0-3.6,5.2v6h7.1v-6c0-5.2-1.1-5.2-3.5-5.2h.1Z"/>
        <path class="st0" d="M95.7,228.9v-14.1c-23.4-14.9-39-41.2-39-71s15.6-56.1,39-71v-14.9c-30.8,16.3-52,48.7-52,85.9s21.2,69.7,52,86v-.8h0Z"/>
      </g>
      <path class="st5" d="M178.2,213.3c0,8.6-3.2,16-9.4,22.3-6.3,6.1-14.3,9.7-24,10.6v19.8h-7.7v-19.5c-9.7-.9-17.8-4.6-24-10.8s-9.4-13.7-9.4-22.3v-35h25.9v49.3c0,8.6,3.8,13,11.4,13s11.3-4.3,11.3-13v-37.9c0-10.8-2.6-20.3-7.7-28.3l-32.4-50.5c-5.6-8.8-8.4-18.4-8.4-29.1v-29.4c0-8.5,3.2-15.9,9.4-22.2s14.3-9.8,24-10.6V0h7.7v19.7c9.7.8,17.8,4.4,24,10.6,6.3,6.3,9.4,13.7,9.4,22.2v35h-25.9v-49.3c0-8.6-3.8-13-11.3-13s-11.4,4.3-11.4,13v36.4c0,10.7,2.6,20,7.7,28.2l32.4,50.5c5.6,8.8,8.4,18.5,8.4,29.4v30.7h0Z"/>
    </g>
  </g>
</svg>