<?xml version="1.0" encoding="UTF-8"?>
<svg id="OBJECT" xmlns="http://www.w3.org/2000/svg" xmlns:xlink="http://www.w3.org/1999/xlink" viewBox="0 0 596 235">
  <defs>
    <style>
      .cls-1 {
        letter-spacing: .35em;
      }

      .cls-2 {
        letter-spacing: 0em;
      }

      .cls-2, .cls-3, .cls-4, .cls-5 {
        fill: #ff31b0;
      }

      .cls-6 {
        letter-spacing: .38em;
      }

      .cls-7 {
        font-family: Raleway-Heavy, Raleway;
        font-size: 58.2px;
        font-weight: 800;
      }

      .cls-8 {
        letter-spacing: .44em;
      }

      .cls-3 {
        letter-spacing: -.01em;
      }

      .cls-9, .cls-10 {
        fill: #e0bf0d;
      }

      .cls-11 {
        fill: url(#Degradado_sin_nombre_2-4);
      }

      .cls-10 {
        letter-spacing: -.04em;
      }

      .cls-4 {
        letter-spacing: -.03em;
      }

      .cls-12 {
        fill: url(#Degradado_sin_nombre_2);
      }

      .cls-5 {
        letter-spacing: -.03em;
      }

      .cls-13 {
        letter-spacing: .42em;
      }

      .cls-14 {
        fill: url(#Degradado_sin_nombre_2-5);
      }

      .cls-15 {
        fill: url(#Degradado_sin_nombre_3);
      }

      .cls-16 {
        letter-spacing: .42em;
      }

      .cls-17 {
        fill: url(#Degradado_sin_nombre_2-3);
      }

      .cls-18 {
        letter-spacing: .45em;
      }

      .cls-19 {
        fill: #e09f0d;
        letter-spacing: 0em;
      }

      .cls-20 {
        fill: url(#Degradado_sin_nombre_2-2);
      }

      .cls-21 {
        font-family: Raleway-SemiBold, Raleway;
        font-size: 17.98px;
        font-weight: 600;
      }

      .cls-22 {
        letter-spacing: .42em;
      }
    </style>
    <linearGradient id="Degradado_sin_nombre_2" data-name="Degradado sin nombre 2" x1="91.75" y1="176.32" x2="91.75" y2="9.03" gradientUnits="userSpaceOnUse">
      <stop offset="0" stop-color="#3000ff"/>
      <stop offset="1" stop-color="#ff31b0"/>
    </linearGradient>
    <linearGradient id="Degradado_sin_nombre_2-2" data-name="Degradado sin nombre 2" x1="91.75" y1="181.29" x2="91.75" y2="177.77" xlink:href="#Degradado_sin_nombre_2"/>
    <linearGradient id="Degradado_sin_nombre_2-3" data-name="Degradado sin nombre 2" x1="141.48" y1="179.11" x2="141.48" y2="58.81" xlink:href="#Degradado_sin_nombre_2"/>
    <linearGradient id="Degradado_sin_nombre_2-4" data-name="Degradado sin nombre 2" x1="91.75" y1="60.14" x2="91.75" y2="52.26" xlink:href="#Degradado_sin_nombre_2"/>
    <linearGradient id="Degradado_sin_nombre_2-5" data-name="Degradado sin nombre 2" x1="42.03" y1="179.11" x2="42.03" y2="58.81" xlink:href="#Degradado_sin_nombre_2"/>
    <linearGradient id="Degradado_sin_nombre_3" data-name="Degradado sin nombre 3" x1="91.75" y1="-9.68" x2="91.75" y2="234.16" gradientUnits="userSpaceOnUse">
      <stop offset="0" stop-color="#ffb50f"/>
      <stop offset="1" stop-color="#ff31b0"/>
    </linearGradient>
  </defs>
  <g>
    <path class="cls-12" d="M111.27,43.12c-4.4-4.36-10-6.84-16.8-7.43v-13.75h-5.43v13.75c-6.8.59-12.4,3.07-16.8,7.43-4.4,4.36-6.6,9.53-6.6,15.52v27.76c0,7.47,1.96,14.27,5.88,20.4l22.73,35.37c3.62,5.69,5.43,12.31,5.43,19.84v19.25c0,6.06-2.62,9.09-7.87,9.09s-7.98-3.03-7.98-9.09v-34.48h-18.18v31.75c0,6.06,2.2,11.27,6.6,15.63,4.4,4.36,9.99,6.87,16.8,7.54v13.64h5.43v-13.86c6.8-.59,12.4-3.05,16.8-7.37,4.4-4.32,6.6-9.52,6.6-15.58v-28.75c0-7.54-1.96-14.37-5.87-20.51l-22.73-35.37c-3.62-5.69-5.43-12.27-5.43-19.73v-18.25c0-6.06,2.66-9.09,7.98-9.09s7.87,3.03,7.87,9.09v34.48h18.18v-31.75c0-5.99-2.2-11.16-6.6-15.52Z"/>
    <g>
      <g>
        <path class="cls-20" d="M91.75,177.83c-.83,0-1.66-.03-2.49-.06.02,3.5.87,3.52,2.54,3.52s2.41-.02,2.43-3.52c-.83.03-1.65.06-2.49.06Z"/>
        <path class="cls-17" d="M123.3,58.81v10.46c16.42,10.46,27.34,28.81,27.34,49.68s-10.92,39.22-27.34,49.68v9.89c0,.2-.02.39-.03.59,21.63-11.38,36.42-34.07,36.42-60.16s-14.78-48.76-36.4-60.15Z"/>
        <path class="cls-11" d="M91.81,52.26c-1.69,0-2.55,0-2.55,3.66v4.22c.83-.03,1.66-.06,2.49-.06s1.66.03,2.49.06v-4.22c0-3.66-.81-3.66-2.44-3.66Z"/>
        <path class="cls-14" d="M60.21,178.53v-9.89c-16.42-10.46-27.34-28.81-27.34-49.68s10.92-39.22,27.34-49.68v-10.46c-21.62,11.38-36.4,34.06-36.4,60.15s14.79,48.78,36.42,60.16c0-.2-.03-.39-.03-.59Z"/>
      </g>
      <path class="cls-15" d="M117.86,167.66c0,6.06-2.2,11.25-6.6,15.58-4.4,4.32-10,6.78-16.8,7.37v13.86h-5.43v-13.64c-6.8-.67-12.4-3.18-16.8-7.54-4.4-4.36-6.6-9.57-6.6-15.63v-24.5h18.18v34.48c0,6.06,2.66,9.09,7.98,9.09s7.87-3.03,7.87-9.09v-26.5c0-7.54-1.81-14.15-5.43-19.84l-22.73-35.37c-3.92-6.13-5.88-12.93-5.88-20.4v-20.51c0-5.99,2.2-11.16,6.6-15.52,4.4-4.36,9.99-6.84,16.8-7.43v-13.75h5.43v13.75c6.8.59,12.4,3.07,16.8,7.43,4.4,4.36,6.6,9.53,6.6,15.52v24.5h-18.18v-34.48c0-6.06-2.62-9.09-7.87-9.09s-7.98,3.03-7.98,9.09v25.5c0,7.47,1.81,14.04,5.43,19.73l22.73,35.37c3.92,6.14,5.87,12.97,5.87,20.51v21.51Z"/>
    </g>
  </g>
  <g>
    <text class="cls-7" transform="translate(183.57 122.73)"><tspan class="cls-9" x="0" y="0">MONE</tspan><tspan class="cls-10" x="170.63" y="0">Y</tspan><tspan class="cls-19" x="206.42" y="0"> </tspan><tspan class="cls-2" x="219.51" y="0">F</tspan><tspan class="cls-3" x="252.04" y="0">L</tspan><tspan class="cls-4" x="285.45" y="0">O</tspan><tspan class="cls-5" x="326.12" y="0">W</tspan></text>
    <text class="cls-21" transform="translate(268.02 156.6)"><tspan class="cls-18" x="0" y="0">P</tspan><tspan class="cls-8" x="19.25" y="0">R</tspan><tspan class="cls-13" x="39.25" y="0">O</tspan><tspan class="cls-18" x="60.17" y="0">JE</tspan><tspan class="cls-16" x="96.11" y="0">T</tspan><tspan class="cls-18" x="114.82" y="0">O MA</tspan><tspan class="cls-1" x="192.79" y="0">L</tspan><tspan class="cls-6" x="209.6" y="0">T</tspan><tspan class="cls-22" x="227.58" y="0">A</tspan></text>
  </g>
</svg>